# xmcd
#
# Track frame offsets:
#	150
#	23434
#	56741
#	77384
#	100850
#	121996
#	153864
#	179696
#	210873
#	245122
#	277174
#
# Disc length: 4024 seconds
#
# Revision: 0
# Processed by: cddbd v1.5.2PL0 Copyright (c) Steve Scherf et al.
# Submitted via: dBpowerAMP V4.0
#
DISCID=8b0fb60b
DTITLE=Bill Dowey - Look On Yonder Wall
DYEAR=1900
DGENRE=Blues
TTITLE0=Seventh son
TTITLE1=SpoonFull
TTITLE2=Certainly all
TTITLE3=Running Out OfTime
TTITLE4=Bring It On Home To Me
TTITLE5=Born Under A Bad Sign
TTITLE6=Early In The Morning
TTITLE7=Sitting On Top Of The World
TTITLE8=Who Do You Love
TTITLE9=Sail Away
TTITLE10=Look On Yonder Wall
EXTD=
EXTT0=
EXTT1=
EXTT2=
EXTT3=
EXTT4=
EXTT5=
EXTT6=
EXTT7=
EXTT8=
EXTT9=
EXTT10=
PLAYORDER=
